<svg viewBox="0 0 115 38" fill="none" xmlns="http://www.w3.org/2000/svg">
    <g clip-path="url(#clip0_109_206)">
        <path d="M0.233962 32.5704C0.113492 32.5217 0.0355398 32.4383 0.0142803 32.3201C-0.0140658 32.2019 0.0142803 32.0768 0.0851455 31.9447L17.7873 1.82834C17.6101 1.81444 17.4329 1.79358 17.2558 1.77968C15.1015 1.61978 12.5999 1.47379 9.73698 1.3417C6.42758 1.23046 4.17407 1.22351 2.96936 1.32084C2.66464 1.3556 2.43787 1.38341 2.27488 1.41817C2.11189 1.45293 1.99142 1.48769 1.92055 1.5294C1.84969 1.57112 1.793 1.60588 1.75048 1.64064C1.63001 1.73797 1.50954 1.78663 1.37489 1.78663C1.24025 1.78663 1.14104 1.73797 1.056 1.64064C0.978047 1.54331 0.949701 1.43207 0.978047 1.29998C1.00639 1.1679 1.07726 1.05666 1.19064 0.959334C1.33237 0.834196 1.51662 0.716011 1.7363 0.618682C1.96307 0.521353 2.34574 0.444881 2.89849 0.389264C3.45124 0.333648 4.28745 0.298887 5.40712 0.291935C6.52679 0.284983 8.03622 0.312791 9.94249 0.37536C12.8409 0.507449 15.3566 0.646491 17.4896 0.81334C20.4093 1.07057 23.2581 1.18875 26.0218 1.16094C28.7926 1.13314 32.1729 0.757724 36.1555 0.0138525C36.3114 -0.0209078 36.4319 -5.16304e-05 36.524 0.0764211C36.6161 0.145942 36.6657 0.250223 36.6728 0.37536C36.6587 0.521353 36.6091 0.646491 36.524 0.750772C36.439 0.855053 36.3185 0.924573 36.1626 0.959334C32.4351 1.65454 29.2603 2.0369 26.6312 2.10642C24.0021 2.17595 21.3872 2.10642 18.7723 1.89786L0.928441 32.2784C0.786711 32.487 0.609548 32.5912 0.396952 32.5912C0.347347 32.5912 0.290654 32.5843 0.226876 32.5704H0.233962Z" fill="#010101"/>
        <path d="M9.15568 23.3937C9.03521 23.3451 8.92183 23.2199 8.80844 23.0183C8.70215 22.8167 8.68797 22.4969 8.77301 22.0659C9.03521 21.0509 9.70135 19.8969 10.7643 18.5968C11.8273 17.3037 12.9611 16.4278 14.1659 15.9759C14.5698 15.8299 15.0162 15.7951 15.491 15.8647C15.9729 15.9342 16.4194 16.247 16.8375 16.7962C17.2485 16.3791 17.5745 16.0315 17.8296 15.7604C18.0776 15.4892 18.2123 15.3502 18.2335 15.3502C18.3186 15.239 18.4319 15.1694 18.5595 15.1416C18.6871 15.1138 18.8004 15.1416 18.9067 15.2042C19.0059 15.2668 19.0626 15.3572 19.0768 15.4684C19.091 15.5796 19.0555 15.6909 18.9847 15.809C17.9004 17.561 17.2556 18.8819 17.043 19.7717C16.8304 20.6546 16.88 21.1899 17.1847 21.3637C17.6241 21.6349 18.4815 21.4333 19.7571 20.745C21.0327 20.0637 22.4996 18.9236 24.1578 17.3246C24.2641 17.2134 24.3775 17.1508 24.5193 17.1299C24.6539 17.116 24.7673 17.1577 24.8665 17.2481C24.9515 17.3315 24.987 17.4358 24.9799 17.561C24.9728 17.693 24.9161 17.8112 24.8098 17.9225C21.7626 20.8354 19.3107 22.344 17.454 22.4413C17.0784 22.4413 16.7666 22.3509 16.5186 22.1771C16.1784 22.0033 15.9729 21.614 15.9091 21.0161C15.8454 20.4183 16.065 19.5284 16.5824 18.3326C15.5619 19.3615 14.4989 20.3487 13.3934 21.2803C11.6147 22.7472 10.3462 23.4702 9.59505 23.4563C9.43206 23.4563 9.29033 23.4355 9.16277 23.3868L9.15568 23.3937ZM10.1336 22.4135C10.2754 22.3579 10.4596 22.2675 10.6935 22.1354C10.9273 22.0103 11.2108 21.8156 11.558 21.5653C11.9053 21.3151 12.3163 20.9883 12.8052 20.5851C13.9462 19.6327 15.0375 18.6316 16.0792 17.5679C16.0509 17.5331 16.0225 17.5053 16.0013 17.4706C15.6328 16.9214 15.1509 16.7059 14.5556 16.8171C13.7761 17.0117 12.9682 17.5471 12.1249 18.423C11.2816 19.299 10.6084 20.2236 10.1053 21.1899C9.8856 21.6418 9.76512 21.9686 9.74386 22.1702C9.72261 22.3718 9.72261 22.483 9.75804 22.4969C9.87142 22.4969 9.99898 22.4691 10.1407 22.4135H10.1336Z" fill="#010101"/>
        <path d="M18.85 28.9693C18.7791 28.9207 18.7083 28.8233 18.6374 28.6704C18.5665 28.5175 18.5382 28.2602 18.5524 27.8987C18.5665 27.5372 18.6728 27.0158 18.8713 26.3415C19.0697 25.6671 19.4098 24.7772 19.8846 23.6858C20.5933 22.0937 21.4862 20.3071 22.5846 18.3257L23.2578 17.1439C23.8247 16.1636 24.4342 15.1625 25.072 14.1475C26.9853 11.0747 28.5231 8.73882 29.6782 7.1468C30.8333 5.55477 31.7191 4.4633 32.3215 3.88628C32.9238 3.30926 33.3845 2.98251 33.6892 2.91994C33.9514 2.83652 34.1498 2.82956 34.2844 2.89909C34.4191 2.96861 34.5041 3.03117 34.5396 3.09374C34.823 3.41354 34.5821 4.21998 33.8238 5.50611C33.2569 6.47245 32.4561 7.68906 31.4144 9.15595C30.4081 10.5255 29.1538 12.048 27.6444 13.7235C26.1349 15.3989 24.9373 16.692 24.0515 17.6097C22.6909 19.9595 21.6067 22.0729 20.7988 23.936C20.5649 24.4644 20.3665 24.9371 20.2177 25.3473C20.0618 25.7575 19.9413 26.119 19.8492 26.4249C19.7571 26.7308 19.6862 26.995 19.6437 27.2105C19.6012 27.426 19.5728 27.6067 19.5657 27.7388C19.5587 27.8779 19.5516 27.9821 19.5657 28.0517C19.5799 28.1212 19.587 28.1699 19.6012 28.1977C19.6153 28.2185 19.6295 28.2324 19.6437 28.2324C19.7216 28.3297 19.7571 28.441 19.7358 28.5731C19.7216 28.7052 19.6579 28.8233 19.5516 28.9346C19.4169 29.0458 19.2823 29.1014 19.1476 29.1014C19.0343 29.1014 18.935 29.0597 18.85 28.9832V28.9693ZM32.7467 4.71357C32.3711 5.10984 31.8679 5.71467 31.2301 6.53502C29.9475 8.22437 28.3105 10.6576 26.3121 13.8277C28.0412 11.9437 29.4869 10.2405 30.6349 8.71101C32.4632 6.06923 33.4482 4.48416 33.5829 3.9558C33.3986 4.06703 33.1152 4.32426 32.7467 4.71357Z" fill="#010101"/>
        <path d="M49.1945 17.3315C52.6102 12.2912 56.1819 7.54993 59.9235 3.10756C60.0298 2.99633 60.1432 2.92681 60.2708 2.899C60.3983 2.87119 60.5188 2.899 60.6393 2.96157C60.7385 3.04499 60.7881 3.14232 60.7881 3.2605C60.7881 3.37869 60.7456 3.50383 60.6534 3.63592C57.0677 7.88363 53.6236 12.4233 50.3355 17.255C52.263 17.2064 54.1622 17.5609 56.033 18.3187C58.3999 19.2989 60.6251 20.9049 62.7015 23.1226C64.1046 20.5642 64.4872 18.2631 63.8566 16.2122C63.0133 13.9111 60.9369 12.8961 57.6346 13.1672C57.5212 13.1672 57.3653 13.1881 57.1811 13.2298C56.9897 13.2715 56.8126 13.3062 56.6425 13.341C56.437 13.3758 56.274 13.4036 56.1535 13.4383C56.0826 13.4522 55.9976 13.4592 55.8913 13.4592C55.785 13.4592 55.6858 13.4383 55.6008 13.3897C55.5086 13.341 55.4661 13.2437 55.459 13.0977C55.4519 13.0629 55.4519 13.0073 55.4661 12.9308C55.4803 12.8474 55.5299 12.7709 55.6149 12.6875C55.6929 12.611 55.8134 12.5346 55.9763 12.472C59.222 11.311 61.7164 9.88582 63.4597 8.18257C65.203 6.48626 66.0675 4.929 66.0463 3.51078C65.9187 1.7241 64.3668 0.931562 61.3904 1.14708C57.8401 1.51554 54.1551 2.85728 50.3497 5.16537C46.5442 7.47346 43.419 10.2682 40.9742 13.5357C40.8679 13.6469 40.7545 13.7234 40.6199 13.7651C40.4923 13.8068 40.3718 13.7998 40.2655 13.7512C40.1522 13.6677 40.0813 13.5704 40.0671 13.4522C40.0459 13.3341 40.0813 13.2159 40.1734 13.1046C42.5616 9.85106 45.7434 6.98681 49.7048 4.50492C53.8575 1.97437 57.7905 0.535294 61.5038 0.180739C65.0117 -0.0417275 66.8612 0.99413 67.0526 3.29526C67.0597 5.00547 66.1242 6.79911 64.225 8.68312C63.2117 9.76069 61.5109 10.9217 59.1369 12.1592C60.4125 12.1939 61.5038 12.4511 62.4109 12.9308C63.5873 13.5565 64.3951 14.502 64.8345 15.7534C65.5715 18.1866 65.0754 20.8701 63.3321 23.8178C63.7857 24.3461 64.225 24.9023 64.6573 25.4863C64.7353 25.5836 64.7636 25.6948 64.7282 25.8269C64.6928 25.959 64.6219 26.0702 64.5014 26.1676C64.3809 26.2649 64.2605 26.3066 64.1329 26.2997C64.0054 26.2927 63.8991 26.2371 63.8211 26.1398C63.4739 25.6601 63.1054 25.2082 62.7298 24.7841C62.0424 25.7852 61.2133 26.7515 60.2424 27.6831C58.3503 29.4559 55.9267 30.9506 52.9646 32.1742C50.0024 33.3977 47.1395 34.0999 44.3828 34.2737H43.6175C40.7616 34.2737 38.6711 33.502 37.353 31.9586C36.042 30.2832 35.9924 28.142 37.2042 25.5349C38.0829 23.7343 39.4152 22.1145 41.208 20.6824C43.1497 19.1529 45.2686 18.124 47.5717 17.5887C48.1245 17.4636 48.6631 17.3732 49.2016 17.3245L49.1945 17.3315ZM49.6552 18.2492C47.6213 21.2594 45.6513 24.3809 43.7379 27.6205C43.5962 27.8291 43.4332 27.9334 43.2348 27.9334C43.171 27.9334 43.1072 27.9195 43.0435 27.8847C42.9372 27.8361 42.8663 27.7526 42.8379 27.6345C42.8025 27.5163 42.8238 27.3911 42.9017 27.259C44.7159 24.2001 46.5725 21.2386 48.4788 18.3743C48.1883 18.423 47.8977 18.4786 47.6072 18.5411C45.2615 19.1182 43.2702 20.1054 41.6261 21.4888C39.9821 22.8723 38.8057 24.3114 38.0829 25.813C37.0412 28.0516 37.0695 29.88 38.1679 31.2982C38.9616 32.202 39.9466 32.779 41.1301 33.0362C42.3135 33.2934 43.4403 33.3908 44.5174 33.3282C47.1607 33.1683 49.889 32.5009 52.7024 31.333C55.5157 30.165 57.8259 28.7468 59.6259 27.0713C60.5968 26.1189 61.433 25.1317 62.1274 24.1028C58.4921 20.1888 54.6086 18.2353 50.4701 18.2353C50.1937 18.2353 49.9174 18.2422 49.6552 18.2631V18.2492Z" fill="#010101"/>
        <path d="M65.3378 23.3937C65.2173 23.3451 65.104 23.2199 64.9906 23.0183C64.8843 22.8167 64.8701 22.4969 64.9551 22.0659C65.2173 21.0509 65.8835 19.8969 66.9465 18.5968C68.0094 17.3037 69.1433 16.4278 70.348 15.9759C70.7519 15.8299 71.1984 15.7951 71.6732 15.8647C72.155 15.9342 72.6015 16.247 73.0196 16.7962C73.4306 16.3791 73.7566 16.0315 74.0117 15.7604C74.2597 15.4892 74.3944 15.3502 74.4156 15.3502C74.5007 15.239 74.6141 15.1694 74.7416 15.1416C74.8692 15.1138 74.9826 15.1416 75.0889 15.2042C75.1881 15.2668 75.2448 15.3572 75.2589 15.4684C75.2731 15.5796 75.2377 15.6909 75.1668 15.809C74.0826 17.561 73.4377 18.8819 73.2251 19.7717C73.0125 20.6546 73.0621 21.1899 73.3668 21.3637C73.8062 21.6349 74.6637 21.4333 75.9392 20.745C77.2148 20.0637 78.6817 18.9236 80.34 17.3246C80.4463 17.2134 80.5596 17.1508 80.7014 17.1299C80.836 17.116 80.9494 17.1577 81.0486 17.2481C81.1337 17.3315 81.1691 17.4358 81.162 17.561C81.1549 17.693 81.0982 17.8112 80.9919 17.9225C77.9447 20.8354 75.4928 22.344 73.6361 22.4413C73.2605 22.4413 72.9487 22.3509 72.7007 22.1771C72.3605 22.0033 72.155 21.614 72.0913 21.0161C72.0275 20.4183 72.2472 19.5284 72.7645 18.3326C71.744 19.3615 70.681 20.3487 69.5755 21.2803C67.7968 22.7472 66.5283 23.4702 65.7772 23.4563C65.6142 23.4563 65.4725 23.4355 65.3449 23.3868L65.3378 23.3937ZM66.3158 22.4135C66.4575 22.3579 66.6417 22.2675 66.8756 22.1354C67.1094 22.0103 67.3929 21.8156 67.7401 21.5653C68.0874 21.3151 68.4984 20.9883 68.9874 20.5851C70.1283 19.6327 71.2196 18.6316 72.2613 17.5679C72.233 17.5331 72.2046 17.5053 72.1834 17.4706C71.8149 16.9214 71.333 16.7059 70.7377 16.8171C69.9582 17.0117 69.1504 17.5471 68.3071 18.423C67.4638 19.299 66.7905 20.2236 66.2874 21.1899C66.0677 21.6418 65.9473 21.9686 65.926 22.1702C65.9047 22.3718 65.9047 22.483 65.9402 22.4969C66.0536 22.4969 66.1811 22.4691 66.3228 22.4135H66.3158Z" fill="#010101"/>
        <path d="M68.7605 38C68.1582 37.9027 67.7826 37.5481 67.6408 36.9363C67.4141 35.1636 68.8881 32.7442 72.0628 29.6645C75.2022 26.7794 78.3698 24.221 81.5658 21.9824C81.8564 21.5166 82.1399 21.0648 82.4233 20.6268C81.7501 21.2872 81.0698 21.8643 80.3753 22.3509C79.6808 22.8445 79.0147 23.1573 78.3769 23.3033C77.9659 23.4007 77.6541 23.4076 77.4415 23.3172C77.2289 23.2269 77.0872 23.1087 77.0163 22.9696C76.9242 22.8445 76.8817 22.6429 76.8746 22.3648C76.8675 22.0867 76.9667 21.6904 77.1722 21.1551C77.3777 20.6268 77.7462 19.9107 78.2848 19.007C78.7171 18.2978 79.1139 17.693 79.4753 17.1855C79.8367 16.678 80.0281 16.3999 80.0564 16.3513C80.1627 16.24 80.2761 16.1636 80.4107 16.1218C80.5383 16.0801 80.6588 16.094 80.758 16.1566C80.8785 16.2192 80.9422 16.3165 80.9635 16.4347C80.9777 16.5529 80.9422 16.678 80.8501 16.8101C80.8288 16.8449 80.6375 17.109 80.2903 17.6096C79.936 18.1101 79.5462 18.708 79.1139 19.3963C78.8234 19.876 78.5966 20.2931 78.4265 20.6268C78.2635 20.9674 78.136 21.2455 78.0509 21.4749C77.9659 21.6974 77.9163 21.8782 77.895 22.0033C77.8809 22.1354 77.8738 22.2258 77.8809 22.2814C77.8879 22.337 77.895 22.3648 77.9163 22.3648C77.9517 22.4274 78.0864 22.4343 78.3061 22.3857C79.1068 22.1632 79.9785 21.6279 80.9351 20.7936C81.8847 19.9594 82.7776 19.0556 83.6068 18.0893C84.4359 17.1229 85.0666 16.3443 85.4918 15.7464C85.5768 15.6352 85.6902 15.5587 85.8178 15.517C85.9453 15.4753 86.0729 15.4823 86.1933 15.5309C86.2926 15.5935 86.3563 15.6839 86.3776 15.7951C86.3989 15.9063 86.3776 16.0315 86.3209 16.1566C86.2288 16.2887 85.9382 16.7475 85.4493 17.547C84.9532 18.3465 84.3083 19.3615 83.5076 20.599C84.9815 19.5979 86.1792 18.8053 87.0862 18.2214C88.0004 17.6374 88.4823 17.3315 88.5319 17.3176C88.6595 17.2342 88.7941 17.2064 88.9146 17.2342C89.035 17.262 89.1343 17.3246 89.198 17.4427C89.2547 17.554 89.2618 17.6722 89.2122 17.7903C89.1626 17.9085 89.0705 18.0198 88.9429 18.1171C88.8721 18.1518 88.213 18.562 86.9729 19.3615C85.7327 20.161 84.1666 21.2247 82.2603 22.5595C80.673 25.0553 79.0289 27.5371 77.3352 30.0121C75.6344 32.4801 74.2667 34.3015 73.2179 35.4555C71.5597 37.1449 70.1636 37.993 69.0298 37.993H68.7605V38ZM72.7077 30.2763C71.1699 31.7709 70.0786 33.071 69.4337 34.1625C68.7959 35.2609 68.5267 36.0604 68.64 36.5748C68.6826 36.846 68.8385 36.9989 69.0936 37.0337C69.377 37.0823 69.8235 36.9433 70.4188 36.6235C71.014 36.3037 71.7227 35.7197 72.5447 34.8855C73.4022 33.933 74.536 32.4522 75.9392 30.4431C77.3423 28.434 78.7667 26.3066 80.2265 24.0681C77.6257 25.966 75.1171 28.0377 72.7148 30.2763H72.7077Z" fill="#010101"/>
        <path d="M83.132 24.9371C83.0328 24.8745 82.969 24.7842 82.9478 24.6729C82.9265 24.5617 82.9548 24.4366 83.0328 24.3114L88.9855 15.0165C89.0563 14.9053 89.1555 14.8219 89.2902 14.7732C89.4248 14.7245 89.5524 14.7245 89.6729 14.7732C89.7933 14.8219 89.8713 14.9053 89.8925 15.0304C89.9209 15.1486 89.8925 15.2737 89.7933 15.4058L87.2351 19.4172C87.9863 18.6107 88.6453 17.985 89.2264 17.5332C89.9209 16.9839 90.4807 16.6016 90.9059 16.3861C91.324 16.1706 91.65 16.0454 91.8909 16.0246C92.1248 15.9968 92.302 16.0246 92.4224 16.0871C92.5287 16.1358 92.635 16.2331 92.7342 16.3791C92.8334 16.5251 92.8547 16.7684 92.7909 17.1021C92.7697 17.2134 92.7342 17.3524 92.6846 17.5123C92.5571 17.9781 92.4579 18.5621 92.3657 19.2503C92.2807 19.9455 92.3657 20.4391 92.6421 20.745C92.6563 20.7589 92.6846 20.7867 92.7413 20.8145C92.7909 20.8493 92.8689 20.8702 92.9752 20.8841C93.0815 20.898 93.2232 20.8841 93.4145 20.8354C93.9815 20.6894 94.5909 20.4391 95.2358 20.0846C95.8806 19.73 96.483 19.3546 97.0428 18.9514C97.6027 18.5482 98.0633 18.2006 98.4176 17.9016C98.7719 17.6027 98.9562 17.4497 98.9774 17.4289C99.0979 17.3316 99.2184 17.2829 99.353 17.269C99.4877 17.262 99.594 17.3037 99.6719 17.4011C99.7499 17.4984 99.7853 17.6096 99.7641 17.7417C99.7499 17.8738 99.679 17.985 99.5656 18.0824C99.5019 18.1658 99.1475 18.4578 98.5097 18.9653C97.872 19.4728 97.0924 20.0081 96.1783 20.5712C95.2641 21.1343 94.357 21.5376 93.4571 21.7809C93.046 21.8643 92.713 21.8643 92.4579 21.7948C92.2027 21.7253 92.0114 21.621 91.8909 21.4958C91.4728 21.044 91.2957 20.4183 91.3736 19.6118C91.4516 18.8054 91.565 18.0963 91.7138 17.4845V17.4636C91.7634 17.3177 91.7917 17.1995 91.813 17.1021C91.8201 17.0535 91.8201 17.0187 91.813 17.0048C91.7492 17.0048 91.5579 17.0882 91.239 17.2481C90.9201 17.408 90.4311 17.7417 89.7792 18.2353C89.2902 18.6246 88.7162 19.1669 88.0571 19.8691C87.3981 20.5712 86.7461 21.2873 86.1083 22.0312C85.4706 22.775 84.9391 23.4007 84.521 23.9291C84.0958 24.4505 83.869 24.7286 83.8265 24.7633C83.6777 24.9232 83.5218 25.0066 83.3588 25.0066C83.295 25.0066 83.2241 24.9927 83.1462 24.958L83.132 24.9371Z" fill="#010101"/>
        <path d="M96.0791 21.4332C96.1004 20.3904 96.5468 19.2572 97.4043 18.0545C98.3255 16.7962 99.3247 16.0037 100.409 15.663C100.926 15.517 101.33 15.5309 101.607 15.6978C101.883 15.8646 102.046 16.108 102.081 16.4069C102.131 16.824 102.011 17.262 101.713 17.7139C101.422 18.1658 100.997 18.4856 100.451 18.6802C100.154 18.7636 99.8633 18.7845 99.5657 18.7497C99.268 18.715 98.9987 18.6663 98.7578 18.5898C98.5169 18.5203 98.3468 18.4578 98.2405 18.4091C97.5035 19.4241 97.1066 20.3765 97.0712 21.2594C97.0712 22.0798 97.5602 22.4621 98.5239 22.3926C100.749 22.2675 103.314 20.6059 106.22 17.4149C106.34 17.3037 106.468 17.2342 106.595 17.2064C106.723 17.1786 106.836 17.2064 106.936 17.2898C107.035 17.3732 107.084 17.4775 107.084 17.6026C107.084 17.7347 107.035 17.8529 106.929 17.9642C105.908 19.1391 104.668 20.2861 103.201 21.4054C101.734 22.5247 100.14 23.1713 98.4177 23.352H98.1696C96.809 23.3381 96.1145 22.6916 96.0862 21.4193L96.0791 21.4332ZM99.6791 17.7556C99.9342 17.7973 100.147 17.7973 100.317 17.7695C100.579 17.6722 100.785 17.5192 100.926 17.2968C101.068 17.0812 101.118 16.8935 101.089 16.7267C101.089 16.6919 101.089 16.6572 101.061 16.6155C101.033 16.5737 100.983 16.5459 100.905 16.532C100.827 16.5181 100.7 16.532 100.529 16.5807C99.9838 16.7614 99.4735 17.0882 98.9846 17.5679C99.1972 17.6513 99.431 17.7069 99.6861 17.7486L99.6791 17.7556Z" fill="#010101"/>
        <path d="M106.454 15.3293L106.553 15.1833C106.638 15.086 106.73 15.0164 106.844 14.9678C106.964 14.9191 107.092 14.9191 107.212 14.9678C107.333 15.0164 107.411 15.0999 107.439 15.2111C107.474 15.2945 107.474 15.3779 107.439 15.4753V15.5239C107.439 15.5239 107.396 15.5587 107.396 15.5726L105.589 18.6385C106.27 17.8529 106.822 17.248 107.248 16.8379C107.673 16.4277 108.013 16.1496 108.261 16.0036C108.509 15.8576 108.715 15.7951 108.877 15.809C109.161 15.7951 109.359 15.9063 109.48 16.1496L109.494 16.1983C109.799 16.9074 110.096 17.4219 110.387 17.7416C110.677 18.0614 111.096 18.1588 111.648 18.0336C112.343 17.839 112.966 17.6304 113.519 17.4079C113.838 17.2828 114.036 17.3454 114.107 17.6165C114.178 17.8807 114.129 18.0684 113.959 18.1866C113.916 18.2213 113.732 18.3048 113.406 18.4369C113.073 18.5759 112.52 18.7497 111.74 18.9583C111.464 19.0417 111.209 19.0764 110.975 19.0764C110.344 19.0417 109.848 18.8053 109.501 18.3673C109.154 17.9224 108.863 17.4149 108.629 16.8309C108.488 16.8935 108.14 17.2063 107.581 17.7764C107.028 18.3395 106.163 19.3476 104.994 20.7936C104.207 21.8086 103.527 22.6985 102.953 23.4771C102.386 24.2488 102.089 24.659 102.06 24.7076C101.911 24.8814 101.748 24.9718 101.564 24.9718C101.5 24.9718 101.437 24.9579 101.38 24.9231C101.259 24.8745 101.182 24.791 101.16 24.6659C101.132 24.5477 101.16 24.4295 101.231 24.3183L106.461 15.3362L106.454 15.3293Z" fill="#010101"/>
        <path d="M70.603 6.82007H71.3046C71.6589 6.82007 71.9282 6.95911 72.1195 7.23024C72.3109 7.50137 72.403 7.90459 72.403 8.4399C72.403 8.97521 72.3109 9.37843 72.1195 9.65651C71.9282 9.93459 71.6447 10.0736 71.2692 10.0736H70.603V6.82007ZM70.9503 7.12596V9.76079H71.255C71.7723 9.76079 72.0345 9.31586 72.0345 8.426C72.0345 7.99497 71.9707 7.67517 71.8432 7.45271C71.7156 7.23024 71.5314 7.12596 71.2833 7.12596H70.9503Z" fill="#010101"/>
        <path d="M74.2666 7.13291H73.3241V8.21048H74.2099V8.52332H73.3241V9.75383H74.2666V10.0667H72.9697V6.81311H74.2666V7.12595V7.13291Z" fill="#010101"/>
        <path d="M75.3085 9.80247C75.4573 9.80247 75.5848 9.74685 75.677 9.64257C75.7691 9.53829 75.8187 9.4062 75.8187 9.25326C75.8187 9.10031 75.7762 8.96822 75.6911 8.87089C75.6061 8.77356 75.4927 8.66928 75.3368 8.57891C75.0959 8.44682 74.9258 8.31473 74.8266 8.17569C74.7274 8.03664 74.6778 7.84894 74.6778 7.61257C74.6778 7.3762 74.7557 7.17459 74.9045 7.01469C75.0533 6.85479 75.2518 6.77832 75.4856 6.77832C75.7195 6.77832 75.9392 6.83394 76.1234 6.93822C76.0951 7.00774 76.0525 7.10507 75.9959 7.23716C75.8187 7.14678 75.6557 7.09812 75.5069 7.09812C75.3581 7.09812 75.2376 7.14678 75.1526 7.24411C75.0675 7.34144 75.0179 7.46657 75.0179 7.61952C75.0179 7.77247 75.0533 7.8976 75.1171 7.98798C75.1809 8.07836 75.3156 8.18264 75.5281 8.29387C75.7478 8.41206 75.9108 8.54415 76.01 8.68319C76.1092 8.82918 76.1588 9.00298 76.1588 9.20459C76.1588 9.48267 76.0809 9.70514 75.925 9.86504C75.7691 10.0319 75.5636 10.1153 75.3085 10.1153C75.0533 10.1153 74.8266 10.0736 74.6494 9.98322V9.62867C74.7415 9.67733 74.8478 9.71904 74.9612 9.7538C75.0817 9.78161 75.1951 9.80247 75.3014 9.80247H75.3085Z" fill="#010101"/>
        <path d="M77.0589 10.0667H76.7188V6.81311H77.0589V10.0667Z" fill="#010101"/>
        <path d="M79.6524 8.37729V9.95541C79.3902 10.0597 79.1139 10.1084 78.8233 10.1084C78.4548 10.1084 78.1714 9.96236 77.9659 9.67037C77.7603 9.37839 77.6611 8.96822 77.6611 8.43986C77.6611 7.9115 77.7674 7.50133 77.9871 7.20934C78.1997 6.91736 78.5044 6.77136 78.9013 6.77136C79.1564 6.77136 79.3973 6.84088 79.6241 6.97992C79.5461 7.14677 79.5036 7.2441 79.4895 7.27191C79.2839 7.14677 79.0926 7.08421 78.9154 7.08421C78.632 7.08421 78.4123 7.20239 78.2635 7.43876C78.1076 7.67513 78.0367 8.00883 78.0367 8.43986C78.0367 8.87089 78.1076 9.20459 78.2493 9.44096C78.391 9.67733 78.5895 9.79551 78.8446 9.79551C79.0217 9.79551 79.1777 9.77466 79.3052 9.72599V8.69013H78.8304V8.37729H79.6524Z" fill="#010101"/>
        <path d="M82.1753 10.0667H81.736L80.5596 7.33452H80.5384C80.5596 7.52222 80.5738 7.71688 80.5738 7.91849V10.0667H80.2407V6.81311H80.6801L81.8494 9.51051H81.8635C81.8494 9.28805 81.8352 9.08644 81.8352 8.91959V6.81311H82.1683V10.0667H82.1753Z" fill="#010101"/>
        <path d="M84.3227 10.1153C84.103 10.1153 83.9329 10.0388 83.8053 9.88589C83.6849 9.73295 83.6211 9.52439 83.6211 9.25326C83.6211 9.0586 83.6565 8.8848 83.7345 8.74576C83.8124 8.60671 83.9471 8.45377 84.1313 8.30778C84.0179 8.12007 83.9471 7.96712 83.9116 7.85589C83.8762 7.74466 83.855 7.61952 83.855 7.48048C83.855 7.26497 83.9046 7.09116 84.0038 6.96603C84.103 6.84089 84.2376 6.77832 84.4077 6.77832C84.5778 6.77832 84.7124 6.84089 84.8116 6.95907C84.9108 7.07726 84.9604 7.23716 84.9604 7.43877C84.9604 7.64038 84.925 7.80723 84.8612 7.94627C84.7975 8.08531 84.6841 8.22435 84.5282 8.35644C84.599 8.46767 84.6912 8.62062 84.8187 8.82918C84.9463 9.03774 85.0171 9.15593 85.0455 9.19764C85.1305 9.03079 85.1801 8.81528 85.1943 8.5511H85.5132C85.499 8.711 85.4707 8.87785 85.4211 9.05165C85.3715 9.22545 85.3077 9.37144 85.2439 9.48963L85.6266 10.0736H85.2368C85.2156 10.0388 85.1801 9.98322 85.1376 9.90675C85.0951 9.83028 85.0597 9.77466 85.0384 9.7399C84.9321 9.87894 84.8258 9.97627 84.7124 10.0388C84.6061 10.0945 84.4715 10.1223 84.3227 10.1223V10.1153ZM84.0392 8.85699C83.9896 8.96127 83.9683 9.09336 83.9683 9.26021C83.9683 9.42706 84.0038 9.55915 84.0746 9.65648C84.1455 9.75381 84.2376 9.80247 84.3581 9.80247C84.5494 9.80247 84.7124 9.69124 84.8612 9.46877L84.2943 8.53719C84.1738 8.64843 84.0888 8.75271 84.0392 8.85699ZM84.4077 7.07031C84.3368 7.07031 84.2872 7.10507 84.2447 7.17459C84.2093 7.24411 84.188 7.33449 84.188 7.45267C84.188 7.57086 84.2022 7.68904 84.2447 7.80723C84.2872 7.92541 84.3297 8.02969 84.3864 8.12007C84.4786 8.03664 84.5423 7.93932 84.5778 7.83503C84.6132 7.73075 84.6345 7.60562 84.6345 7.46657C84.6345 7.20935 84.5565 7.07726 84.4077 7.07726V7.07031Z" fill="#010101"/>
        <path d="M87.9153 10.1153C87.5822 10.1153 87.32 9.96931 87.1216 9.67733C86.9303 9.38534 86.8311 8.98212 86.8311 8.46071C86.8311 7.93931 86.9232 7.52914 87.1145 7.22325C87.3059 6.92431 87.5751 6.77136 87.9153 6.77136C88.1279 6.77136 88.3192 6.82698 88.5035 6.93821L88.3688 7.2302C88.2271 7.13982 88.0783 7.09116 87.9224 7.09116C87.6956 7.09116 87.5114 7.20934 87.3838 7.45267C87.2562 7.69599 87.1854 8.02969 87.1854 8.44681C87.1854 8.86393 87.2492 9.19763 87.3838 9.44096C87.5184 9.68428 87.7027 9.80246 87.9365 9.80246C88.1137 9.80246 88.2767 9.76075 88.4255 9.68428V9.99712C88.2909 10.0736 88.1208 10.1153 87.9082 10.1153H87.9153Z" fill="#010101"/>
        <path d="M88.9502 6.82007H89.5171C89.8431 6.82007 90.084 6.89654 90.2399 7.04949C90.3958 7.20243 90.4738 7.43185 90.4738 7.74469C90.4738 7.96716 90.4313 8.14791 90.3533 8.29391C90.2754 8.4399 90.1478 8.54418 89.9777 8.62065L90.6297 10.0806H90.247L89.6588 8.71103H89.3045V10.0806H88.9502V6.82702V6.82007ZM89.3045 7.13291V8.39123H89.5667C89.751 8.39123 89.8856 8.33562 89.9848 8.23134C90.077 8.1201 90.1266 7.96021 90.1266 7.74469C90.1266 7.52918 90.077 7.37623 89.9848 7.2789C89.8927 7.18158 89.7368 7.13291 89.5313 7.13291H89.3116H89.3045Z" fill="#010101"/>
        <path d="M92.3374 7.13291H91.3949V8.21048H92.2807V8.52332H91.3949V9.75383H92.3374V10.0667H91.0405V6.81311H92.3374V7.12595V7.13291Z" fill="#010101"/>
        <path d="M93.3577 6.81311H93.7829C93.875 7.18157 94.1514 8.26609 94.5978 10.0667H94.2435L93.9884 9.00996H93.1663L92.9112 10.0667H92.5498C92.9963 8.26609 93.2655 7.18157 93.3577 6.81311ZM93.712 7.82811L93.6411 7.50832C93.6128 7.38318 93.5915 7.25804 93.5703 7.12595C93.549 7.31366 93.5136 7.48051 93.4852 7.6265C93.4498 7.77945 93.4285 7.88373 93.4073 7.9602C93.3931 8.02972 93.3648 8.15486 93.3222 8.32171C93.2797 8.48856 93.2514 8.6137 93.2372 8.68322H93.9175L93.712 7.82811Z" fill="#010101"/>
        <path d="M96.2989 7.13291H95.6469V10.0667H95.2926V7.13291H94.6406V6.82007H96.2989V7.13291Z" fill="#010101"/>
        <path d="M97.0643 10.0667H96.7241V6.81311H97.0643V10.0667Z" fill="#010101"/>
        <path d="M98.6442 10.0667H98.219C98.0843 9.51051 97.8292 8.43294 97.4395 6.81311H97.8009C97.9851 7.60565 98.1481 8.33561 98.304 9.00301C98.3536 9.22548 98.3961 9.46185 98.4245 9.71212C98.4528 9.50356 98.4812 9.31585 98.5166 9.16291L99.0623 6.82006H99.4237L98.6442 10.0736V10.0667Z" fill="#010101"/>
        <path d="M101.068 7.13291H100.125V8.21048H101.011V8.52332H100.125V9.75383H101.068V10.0667H99.771V6.81311H101.068V7.12595V7.13291Z" fill="#010101"/>
        <path d="M103.045 6.81311H103.47C103.562 7.18157 103.839 8.26609 104.285 10.0667H103.931L103.676 9.00996H102.854L102.599 10.0667H102.237C102.684 8.26609 102.953 7.18157 103.045 6.81311ZM103.399 7.82811L103.329 7.50832C103.3 7.38318 103.279 7.25804 103.258 7.12595C103.237 7.31366 103.201 7.48051 103.173 7.6265C103.137 7.77945 103.116 7.88373 103.095 7.9602C103.081 8.02972 103.052 8.15486 103.01 8.32171C102.967 8.48856 102.939 8.6137 102.925 8.68322H103.605L103.399 7.82811Z" fill="#010101"/>
        <path d="M106.518 8.37729V9.95541C106.255 10.0597 105.979 10.1084 105.689 10.1084C105.32 10.1084 105.037 9.96236 104.831 9.67037C104.626 9.37839 104.526 8.96822 104.526 8.43986C104.526 7.9115 104.633 7.50133 104.852 7.20934C105.065 6.91736 105.37 6.77136 105.767 6.77136C106.022 6.77136 106.263 6.84088 106.489 6.97992C106.411 7.14677 106.369 7.2441 106.355 7.27191C106.149 7.14677 105.958 7.08421 105.781 7.08421C105.497 7.08421 105.278 7.20239 105.129 7.43876C104.973 7.67513 104.902 8.00883 104.902 8.43986C104.902 8.87089 104.973 9.20459 105.115 9.44096C105.256 9.67733 105.455 9.79551 105.71 9.79551C105.887 9.79551 106.043 9.77466 106.17 9.72599V8.69013H105.696V8.37729H106.518Z" fill="#010101"/>
        <path d="M108.395 7.13291H107.453V8.21048H108.339V8.52332H107.453V9.75383H108.395V10.0667H107.099V6.81311H108.395V7.12595V7.13291Z" fill="#010101"/>
        <path d="M110.89 10.0667H110.45L109.274 7.33452H109.253C109.274 7.52222 109.288 7.71688 109.288 7.91849V10.0667H108.955V6.81311H109.394L110.564 9.51051H110.578C110.564 9.28805 110.55 9.08644 110.55 8.91959V6.81311H110.883V10.0667H110.89Z" fill="#010101"/>
        <path d="M112.541 10.1153C112.208 10.1153 111.946 9.96931 111.748 9.67733C111.556 9.38534 111.457 8.98212 111.457 8.46071C111.457 7.93931 111.549 7.52914 111.74 7.22325C111.932 6.92431 112.201 6.77136 112.541 6.77136C112.754 6.77136 112.945 6.82698 113.129 6.93821L112.995 7.2302C112.853 7.13982 112.704 7.09116 112.548 7.09116C112.322 7.09116 112.137 7.20934 112.01 7.45267C111.882 7.69599 111.811 8.02969 111.811 8.44681C111.811 8.86393 111.875 9.19763 112.01 9.44096C112.144 9.68428 112.329 9.80246 112.563 9.80246C112.74 9.80246 112.903 9.76075 113.051 9.68428V9.99712C112.917 10.0736 112.747 10.1153 112.534 10.1153H112.541Z" fill="#010101"/>
        <path d="M114.291 10.0667H113.937V8.79445L113.235 6.81311H113.604L114.114 8.36342L114.624 6.81311H114.993L114.284 8.78055V10.0597L114.291 10.0667Z" fill="#010101"/>
    </g>
    <defs>
        <clipPath id="clip0_109_206">
            <rect width="115" height="38" fill="white"/>
        </clipPath>
    </defs>
</svg>