<svg  viewBox="0 0 33 40" fill="none" xmlns="http://www.w3.org/2000/svg">
    <g clip-path="url(#clip0_112_1284)">
        <path d="M0.313965 13.4664V0.179688H4.77214C5.57019 0.179688 6.22495 0.330322 6.73824 0.631591C7.25153 0.932861 7.63423 1.37025 7.88634 1.94375C8.13845 2.51725 8.2636 3.21416 8.2636 4.03448C8.2636 5.0617 8.09311 5.84754 7.75575 6.38837C7.41658 6.92921 6.9577 7.30489 6.37912 7.51178C5.80054 7.72049 5.1494 7.82394 4.42935 7.82394H3.2486V13.4664H0.313965ZM3.2486 5.77313H4.23165C4.59258 5.77313 4.86465 5.7078 5.05146 5.57713C5.23646 5.44645 5.3598 5.24863 5.41965 4.98729C5.4795 4.72413 5.51034 4.39201 5.51034 3.9873C5.51034 3.64791 5.48495 3.35027 5.43597 3.09256C5.387 2.83485 5.26911 2.63158 5.08411 2.47732C4.89729 2.32487 4.60891 2.24683 4.21533 2.24683H3.2486V5.77313Z" fill="black"/>
        <path d="M13.148 13.6624C12.1541 13.6624 11.3669 13.4882 10.7883 13.1379C10.2098 12.7876 9.79441 12.2849 9.5423 11.6297C9.29019 10.9745 9.16504 10.1923 9.16504 9.2849V4.34844C9.16504 3.43011 9.29019 2.6479 9.5423 2.00362C9.79259 1.35934 10.2079 0.86388 10.7883 0.519054C11.3669 0.172413 12.1541 0 13.148 0C14.1528 0 14.9473 0.172413 15.5331 0.517239C16.1171 0.862066 16.5361 1.35571 16.7864 2.00181C17.0385 2.6479 17.1636 3.4283 17.1636 4.34663V9.28309C17.1636 10.1905 17.0385 10.9727 16.7864 11.6279C16.5343 12.2849 16.1171 12.7876 15.5331 13.1361C14.9491 13.4882 14.1546 13.6624 13.148 13.6624ZM13.148 11.5789C13.4545 11.5789 13.6776 11.5027 13.8209 11.3502C13.9624 11.1978 14.0549 11 14.1002 10.7604C14.1438 10.5208 14.1655 10.274 14.1655 10.0217V3.62431C14.1655 3.36115 14.1438 3.11251 14.1002 2.87839C14.0567 2.64427 13.9642 2.45008 13.8209 2.29582C13.6794 2.14337 13.4545 2.06533 13.148 2.06533C12.8633 2.06533 12.6511 2.14155 12.5078 2.29582C12.3663 2.44827 12.272 2.64246 12.2285 2.87839C12.1849 3.11433 12.1632 3.36296 12.1632 3.62431V10.0217C12.1632 10.274 12.1813 10.519 12.2212 10.7604C12.2593 11.0018 12.3463 11.1978 12.4842 11.3502C12.622 11.5027 12.8433 11.5789 13.148 11.5789Z" fill="black"/>
        <path d="M22.1474 13.6624C21.3167 13.6624 20.622 13.5154 20.0652 13.2195C19.5084 12.9237 19.0876 12.4682 18.8028 11.8493C18.5181 11.2322 18.3603 10.4301 18.3276 9.44641L20.836 9.06892C20.8469 9.63697 20.8995 10.0961 20.992 10.4464C21.0845 10.7967 21.2151 11.0471 21.3856 11.2014C21.5543 11.3538 21.7592 11.4301 22.0005 11.4301C22.307 11.4301 22.5065 11.3266 22.599 11.1179C22.6915 10.911 22.7387 10.6914 22.7387 10.4627C22.7387 9.91646 22.6081 9.45367 22.3451 9.07617C22.0821 8.69868 21.7284 8.31937 21.2804 7.93643L20.1323 6.93644C19.6299 6.50994 19.2055 6.02537 18.8627 5.48454C18.5181 4.9437 18.3458 4.27401 18.3458 3.47547C18.3458 2.34843 18.6795 1.48818 19.3451 0.892902C20.0108 0.297623 20.9195 -0.00183105 22.0658 -0.00183105C22.7767 -0.00183105 23.3463 0.117951 23.7779 0.359329C24.2096 0.600708 24.5379 0.914681 24.761 1.30306C24.9841 1.69145 25.1382 2.10161 25.2199 2.53355C25.3015 2.96549 25.3486 3.37747 25.3595 3.77129L22.8348 4.08345C22.8239 3.68963 22.7985 3.34843 22.7604 3.05805C22.7223 2.76767 22.6425 2.54444 22.5228 2.38473C22.4031 2.22684 22.2163 2.14698 21.966 2.14698C21.6921 2.14698 21.4926 2.26132 21.3675 2.49181C21.2423 2.7223 21.1788 2.95097 21.1788 3.18146C21.1788 3.67329 21.2967 4.07619 21.5307 4.38654C21.7647 4.6987 22.0748 5.02356 22.4575 5.36294L23.5567 6.33027C24.1352 6.8221 24.625 7.37927 25.024 8.00358C25.423 8.62609 25.6225 9.39741 25.6225 10.3157C25.6225 10.9382 25.481 11.5045 25.1963 12.0126C24.9115 12.5208 24.5107 12.9237 23.992 13.2177C23.4714 13.5154 22.8584 13.6624 22.1474 13.6624Z" fill="black"/>
        <path d="M2.72606 27.7041V16.5988H0V14.4174H8.38493V16.5988H5.6752V27.7022H2.72606V27.7041Z" fill="black"/>
        <path d="M9.94287 27.7041V14.4192H15.9101V16.421H12.8775V19.7186H15.1882V21.7531H12.8775V25.7222H15.9427V27.7077H9.94287V27.7041Z" fill="black"/>
        <path d="M17.9199 27.7041V14.4192H21.5746C22.4706 14.4192 23.2469 14.5172 23.9016 14.715C24.5582 14.911 25.0679 15.2649 25.4343 15.7731C25.8006 16.2813 25.9838 16.9999 25.9838 17.9292C25.9838 18.4754 25.9403 18.9618 25.8532 19.3883C25.7662 19.8148 25.6047 20.1832 25.369 20.4954C25.1332 20.8076 24.7976 21.0671 24.3605 21.274L26.1797 27.7041H23.1471L21.6889 21.7495H20.8527V27.7041H17.9199ZM20.8546 20.0598H21.6744C22.0897 20.0598 22.4126 19.9854 22.6411 19.8384C22.8696 19.6914 23.031 19.4772 23.1254 19.1996C23.2179 18.9201 23.265 18.5843 23.265 18.1905C23.265 17.6224 23.1616 17.1796 22.9531 16.862C22.7463 16.5444 22.3636 16.3865 21.805 16.3865H20.8546V20.0598Z" fill="black"/>
        <path d="M19.8694 28.2268C19.9184 28.2322 19.9565 28.254 19.9873 28.2921C20.0181 28.332 20.0308 28.3756 20.0254 28.4228C20.0218 28.4718 20 28.5117 19.9637 28.5444C19.8168 28.6605 19.6572 28.7567 19.4885 28.8329C19.318 28.9092 19.1566 28.9672 19.0042 29.009C18.8501 29.0507 18.6687 29.0743 18.4565 29.078C18.2443 29.0816 18.0647 29.0798 17.916 29.0707C17.7673 29.0616 17.5678 29.0362 17.3175 28.9963C17.0672 28.9564 16.8731 28.9201 16.7316 28.8892C16.5902 28.8583 16.3834 28.813 16.1113 28.7495C15.5473 28.6224 15.1174 28.5335 14.8236 28.4845C14.7492 28.4718 14.6821 28.4881 14.6222 28.5335C14.5624 28.5789 14.5279 28.6369 14.5207 28.7113C14.1706 31.6006 13.8061 33.8166 13.427 35.361C13.4143 35.4082 13.3889 35.4445 13.3472 35.4718C13.3055 35.499 13.2601 35.5062 13.213 35.4935C13.1658 35.4826 13.1295 35.4554 13.106 35.4119C13.0824 35.3701 13.0751 35.3248 13.0878 35.2776C13.4578 33.7494 13.8206 31.5444 14.1724 28.6642C14.1797 28.5897 14.1597 28.5244 14.1108 28.4682C14.0618 28.4119 14.0001 28.381 13.9276 28.3774C12.8883 28.2721 11.9034 28.4573 10.9784 28.9382C10.7245 29.0743 10.5177 29.2268 10.3618 29.3974C10.2058 29.568 10.0988 29.7259 10.0407 29.8729C9.9845 30.0199 9.95367 30.1741 9.95004 30.3338C9.94823 30.4936 9.95729 30.6188 9.97906 30.7095C10.0008 30.8003 10.028 30.8856 10.0625 30.9672C10.184 31.2558 10.3654 31.479 10.603 31.6369C10.8406 31.7948 11.0655 31.842 11.2741 31.7767C11.343 31.7531 11.4047 31.7658 11.4573 31.813C11.5099 31.8602 11.5262 31.9182 11.508 31.9872C11.4899 32.0562 11.4482 32.0997 11.3829 32.1179C11.3357 32.1342 11.285 32.1451 11.2305 32.1524C10.944 32.1923 10.6592 32.1142 10.3745 31.9164C10.0897 31.7186 9.87568 31.4482 9.73239 31.1034C9.67979 30.9473 9.63626 30.7857 9.60361 30.6224C9.57097 30.4591 9.57459 30.2848 9.60906 30.1015C9.64533 29.9182 9.70518 29.7422 9.78862 29.5734C9.87205 29.4046 10.0008 29.2377 10.1768 29.0707C10.3527 28.9055 10.5631 28.7567 10.8098 28.6279C11.0673 28.4863 11.3394 28.372 11.6223 28.283C11.9053 28.1941 12.1664 28.1251 12.404 28.078C12.6416 28.0308 12.9101 28.0072 13.2093 28.0035C13.5104 27.9999 13.7625 28.0054 13.9675 28.0181C14.1724 28.0308 14.43 28.0634 14.7438 28.1161C15.0557 28.1687 15.2951 28.2123 15.462 28.2486C15.6289 28.2848 15.8701 28.3375 16.1839 28.4083C16.4523 28.4663 16.6536 28.5099 16.7897 28.5389C16.9257 28.568 17.1107 28.6043 17.3447 28.646C17.5786 28.6896 17.7636 28.715 17.9015 28.7222C18.0393 28.7295 18.2044 28.7331 18.3985 28.7313C18.5925 28.7295 18.7558 28.7113 18.8936 28.6769C19.0296 28.6424 19.1729 28.5897 19.3235 28.5208C19.474 28.4518 19.6118 28.3683 19.7388 28.2685C19.7787 28.2358 19.8204 28.2231 19.8694 28.2268Z" fill="black" stroke="black" stroke-width="0.75" stroke-miterlimit="10"/>
        <path d="M20.7782 32.6823C20.8272 32.6733 20.8725 32.6823 20.9124 32.7114C20.9523 32.7404 20.9759 32.7785 20.9831 32.8275C20.9904 32.8765 20.9795 32.9219 20.9541 32.9618C20.7473 33.2468 20.4898 33.5353 20.1833 33.8311C19.8768 34.127 19.5176 34.3974 19.1095 34.6442C18.7014 34.891 18.3242 35.038 17.9741 35.0852L17.9614 35.087C17.5751 35.1542 17.2287 35.0653 16.9258 34.8203C16.797 34.7114 16.71 34.5752 16.6646 34.4119C16.6465 34.3502 16.6066 34.3157 16.5431 34.3048C16.4796 34.2958 16.4288 34.3157 16.3907 34.3665C15.9355 34.9945 15.5437 35.2395 15.2136 35.0979C15.0975 35.0507 15.0195 34.9582 14.9796 34.8184C14.9397 34.6805 14.9379 34.519 14.9706 34.3375C15.0032 34.156 15.0431 33.9945 15.0848 33.8566C15.1266 33.7186 15.1755 33.5789 15.2281 33.4391C15.2499 33.3956 15.2807 33.3647 15.3243 33.3466C15.3678 33.3284 15.4113 33.3284 15.453 33.3448C15.4966 33.3611 15.5274 33.3919 15.5473 33.4337C15.5673 33.4772 15.5709 33.5208 15.56 33.568C15.4784 33.7658 15.4149 33.96 15.3714 34.1487C15.3261 34.3375 15.3061 34.4809 15.3079 34.5789C15.3097 34.6769 15.3243 34.7404 15.3515 34.7676C15.473 34.8184 15.6671 34.6823 15.9337 34.3593C16.2003 34.0344 16.4415 33.6569 16.6555 33.2268C16.6773 33.1832 16.7081 33.1542 16.7499 33.1379C16.7916 33.1233 16.8333 33.1233 16.8768 33.1379C16.9204 33.1524 16.9512 33.1796 16.973 33.2177C16.9947 33.2558 17.0002 33.2958 16.9929 33.3375C16.9711 33.4446 16.9548 33.5698 16.9457 33.7096C16.9349 33.8493 16.9457 34.0072 16.9766 34.1814C17.0074 34.3556 17.0636 34.4772 17.1471 34.548C17.3756 34.7204 17.6313 34.784 17.9107 34.735L17.9234 34.7331C18.2353 34.6896 18.5799 34.5498 18.9554 34.3157C19.3308 34.0816 19.6627 33.8257 19.9493 33.5517C20.2359 33.2776 20.4717 33.0108 20.6548 32.7531C20.6893 32.7168 20.7292 32.6914 20.7782 32.6823Z" fill="black" stroke="black" stroke-width="0.75" stroke-miterlimit="10"/>
        <path d="M25.8947 32.1742C25.9437 32.1669 25.9872 32.1796 26.0253 32.2105C26.0634 32.2413 26.0852 32.2812 26.0906 32.3321C26.096 32.3811 26.0815 32.4246 26.0507 32.4609C25.8494 32.7168 25.6136 32.9237 25.3433 33.0816C25.0731 33.2395 24.7938 33.3448 24.5018 33.3938C24.2097 33.4428 23.9214 33.4591 23.633 33.4428C23.3464 33.4264 23.058 33.3774 22.7696 33.2994C22.6989 33.2812 22.6318 33.2939 22.5701 33.3339C22.5085 33.3738 22.4704 33.4319 22.4577 33.5063C22.4377 33.6642 22.3978 33.8148 22.3362 33.96C22.2763 34.1233 22.1802 34.2631 22.046 34.3774C21.9117 34.4918 21.7576 34.5625 21.5834 34.5916C21.52 34.6006 21.4601 34.6043 21.4003 34.6025L21.3295 34.5843C20.9214 34.4319 20.7274 33.8947 20.7509 32.9763C20.7618 32.4682 20.8398 31.8874 20.9795 31.2322C21.1209 30.5771 21.3041 29.9872 21.5308 29.4664C21.7576 28.9455 21.9807 28.6497 22.2037 28.5825C22.2944 28.5426 22.3851 28.5371 22.4776 28.5644C22.5701 28.5934 22.6427 28.646 22.6953 28.7259C22.8041 28.8929 22.8132 29.2014 22.7207 29.6515C22.6282 30.1016 22.4812 30.5698 22.2799 31.0562C22.0786 31.5426 21.8682 31.9981 21.6487 32.4228C21.4293 32.8475 21.2533 33.1397 21.1209 33.2994C21.1173 33.3048 21.1137 33.3103 21.1082 33.3139C21.1137 33.5135 21.1427 33.7114 21.1971 33.9037C21.2407 34.0489 21.3332 34.1379 21.4764 34.1723C21.6197 34.2068 21.7449 34.1723 21.8483 34.0653C21.9154 33.9927 21.9698 33.9074 22.0115 33.8094C22.0804 33.6442 22.1149 33.4736 22.1185 33.2958C22.1149 33.1451 22.0496 33.0417 21.9172 32.9818C21.8446 32.9473 21.7757 32.911 21.7104 32.8729C21.6506 32.8402 21.6215 32.7876 21.6197 32.7186C21.6197 32.6478 21.6506 32.597 21.714 32.5644C21.7975 32.5117 21.89 32.4899 21.9879 32.499C22.0877 32.5081 22.1729 32.5462 22.2473 32.6134C22.2999 32.666 22.3416 32.7259 22.3742 32.7948C22.6536 32.9056 22.9401 32.9872 23.2303 33.0344C23.5223 33.0834 23.8216 33.0979 24.1318 33.0798C24.4419 33.0616 24.7394 32.9818 25.0277 32.8384C25.3161 32.695 25.5628 32.4936 25.7678 32.2322C25.8058 32.2014 25.8457 32.1796 25.8947 32.1742ZM22.3071 28.9237C22.1929 28.9582 22.0568 29.1488 21.8972 29.4972C21.7376 29.8457 21.5853 30.2903 21.4402 30.833C21.2951 31.3756 21.1953 31.9001 21.1427 32.4101C21.1391 32.4428 21.1518 32.4645 21.1826 32.4736C21.2134 32.4827 21.2352 32.4736 21.2497 32.4428C21.5127 31.9455 21.7485 31.4373 21.9535 30.9165C22.1149 30.5117 22.2364 30.156 22.3144 29.8511C22.3924 29.5462 22.4341 29.3266 22.4377 29.1941C22.4413 29.0616 22.4305 28.9727 22.3996 28.9255C22.3942 28.9128 22.3761 28.9074 22.3507 28.911C22.3343 28.9128 22.3198 28.9183 22.3071 28.9237Z" fill="black" stroke="black" stroke-width="0.75" stroke-miterlimit="10"/>
        <path d="M31.5427 31.3339C31.5899 31.3321 31.6316 31.3484 31.6697 31.3811C31.7059 31.4156 31.7259 31.4573 31.7277 31.5063C31.7295 31.5553 31.7132 31.5989 31.6769 31.637C31.6171 31.7005 31.5427 31.7749 31.4556 31.8602C31.3668 31.9455 31.1945 32.0907 30.9351 32.2976C30.6775 32.5045 30.4164 32.6896 30.1552 32.8548C29.8922 33.0181 29.573 33.1796 29.1939 33.3375C28.8148 33.4954 28.4466 33.5989 28.0893 33.6479C27.6341 33.715 27.1843 33.6932 26.7399 33.5825C26.5984 33.548 26.4769 33.499 26.3753 33.4391C26.2738 33.3774 26.1958 33.3157 26.1414 33.2522C26.087 33.1887 26.0434 33.1197 26.0126 33.0435C25.9818 32.9673 25.9636 32.9019 25.9582 32.8421C25.9527 32.784 25.9527 32.7241 25.9582 32.6642C25.9781 32.4464 26.0652 32.2232 26.2212 31.9927C26.3753 31.7622 26.5585 31.5716 26.7671 31.4246C26.9775 31.2776 27.1716 31.196 27.3511 31.1796C27.4708 31.1633 27.5815 31.1905 27.6812 31.2631C27.781 31.3357 27.8427 31.4337 27.8699 31.5589C27.9225 31.7713 27.8282 31.9818 27.5887 32.1923C27.2405 32.4827 26.8397 32.6442 26.3844 32.6805C26.3608 32.6787 26.3427 32.686 26.3264 32.7023C26.31 32.7186 26.3064 32.7368 26.3137 32.7586C26.3137 32.9909 26.486 33.1488 26.8306 33.2341C27.1371 33.3139 27.46 33.3411 27.7991 33.3157C28.1365 33.2885 28.4485 33.2286 28.7314 33.1343C29.0143 33.0399 29.3009 32.9165 29.5893 32.7622C29.8777 32.6079 30.1225 32.4591 30.3239 32.3157C30.5252 32.1724 30.7174 32.0217 30.9043 31.8657C31.0893 31.7096 31.2162 31.6007 31.2815 31.5353C31.3486 31.4718 31.394 31.4246 31.423 31.392C31.4538 31.3557 31.4955 31.3357 31.5427 31.3339ZM26.4787 32.2486C26.4316 32.3375 26.4606 32.3702 26.5676 32.3466C26.7544 32.3067 26.9811 32.1941 27.2514 32.0054C27.2931 31.9727 27.3276 31.9455 27.3566 31.9219C27.4817 31.8094 27.5361 31.715 27.5162 31.6406C27.5053 31.5916 27.489 31.5608 27.469 31.5481C27.4491 31.5353 27.4182 31.5281 27.3783 31.5299C27.2332 31.5408 27.0754 31.6152 26.8995 31.7531C26.7254 31.8911 26.5857 32.0562 26.4787 32.2486Z" fill="black" stroke="black" stroke-width="0.75" stroke-miterlimit="10"/>
    </g>
    <defs>
        <clipPath id="clip0_112_1284">
            <rect width="32.4642" height="39.3265" fill="white"/>
        </clipPath>
    </defs>
</svg>