<svg  viewBox="0 0 95 35" fill="none" xmlns="http://www.w3.org/2000/svg">
    <g clip-path="url(#clip0_112_1268)">
        <path d="M20.6823 0H22.2962V3.92857H26.7314V5.47802H22.2962V11.7088H20.6823V5.47802H16.104V3.92857H20.6823V0Z" fill="black"/>
        <path d="M23.1831 0.032959H24.797V4.69779H24.8199C25.5467 4.1868 26.3708 3.93406 27.2807 3.93406C28.5054 3.93406 29.5641 4.43406 30.4626 5.42856C31.0177 6.17582 31.2924 6.94505 31.2924 7.75274V11.7143H29.6786V7.79669C29.6786 6.99999 29.2952 6.34615 28.5283 5.84065C28.1334 5.59889 27.6985 5.48351 27.212 5.48351C26.4509 5.48351 25.7985 5.81318 25.2662 6.47252C24.9572 6.87362 24.8027 7.36263 24.8027 7.95054V11.7143H23.1888V0.032959H23.1831Z" fill="black"/>
        <path d="M36.0598 3.92859C37.2501 3.92859 38.2803 4.39013 39.1444 5.30771C39.7797 6.07694 40.1001 6.9176 40.1001 7.8132C40.0887 8.10441 40.0658 8.36265 40.0143 8.59342H33.7535C33.9538 9.16485 34.3486 9.60441 34.9438 9.91211C35.2929 10.0824 35.6592 10.1649 36.0369 10.1649C36.6721 10.1649 37.2501 9.93958 37.7595 9.48903L38.8869 10.5714V10.5934C38.0685 11.3407 37.1242 11.7198 36.0541 11.7198H36.0197C34.8122 11.7198 33.7821 11.2583 32.9294 10.3407C32.2941 9.57145 31.9736 8.73628 31.9736 7.83518C31.9736 6.68134 32.4544 5.68683 33.4101 4.85716C34.1884 4.24727 35.0697 3.93958 36.0541 3.93958L36.0598 3.92859ZM33.7535 7.04947H38.326C38.1486 6.53298 37.7824 6.10441 37.233 5.77474C36.8209 5.57694 36.4203 5.48353 36.0254 5.48353C35.167 5.48353 34.4631 5.87914 33.9137 6.67584L33.7535 7.05496V7.04947Z" fill="black"/>
        <path d="M15.1944 8.98354C14.4791 8.34618 13.5348 7.83519 12.3845 7.46156C11.2399 7.08794 9.94083 6.90112 8.52156 6.90112C7.10228 6.90112 5.67156 7.07695 4.27517 7.4231C2.54113 7.85717 1.64836 8.36816 1.53963 8.98354C1.43662 9.4231 1.63692 9.87914 2.12909 10.3407C2.34083 10.533 2.58119 10.6978 2.83873 10.8242C3.37668 11.0879 3.86312 11.0824 4.25228 10.8627C4.83601 10.3737 5.56282 9.97255 6.41553 9.68134C6.83903 9.53299 7.28541 9.41761 7.74897 9.33519C8.2068 9.25277 8.77909 9.21431 9.44294 9.21431C10.1068 9.21431 10.742 9.32969 11.3487 9.56046C13.1056 10.2418 13.9583 11.5879 13.9583 13.6704C13.9583 15.1868 13.5405 16.7528 12.7164 18.3132C12.3444 19.0275 11.9038 19.7143 11.4059 20.3572C10.908 21 10.3701 21.6099 9.80348 22.1649C9.23692 22.7198 8.65891 23.2253 8.06945 23.6704C7.48571 24.1154 6.9077 24.5 6.36975 24.8077C5.82608 25.1154 5.31674 25.3572 4.84746 25.5275C4.38391 25.6923 3.96614 25.7802 3.59415 25.7802C3.19354 25.7802 3.14204 25.6209 3.14204 25.4616C3.14204 25.3297 3.15921 25.1704 3.19927 24.989C3.23933 24.7967 3.308 24.4396 3.39957 23.9231C3.49113 23.4176 3.77156 22.4945 4.23511 21.1813C5.46553 17.7418 6.92487 14.7857 8.57306 12.3956C8.79626 12.0989 8.73903 11.7912 8.41282 11.533C8.26403 11.4176 8.058 11.3242 7.79475 11.2528C7.29114 11.1154 6.67879 11.1209 5.84324 11.2308C5.52276 11.2802 5.25951 11.4616 5.05348 11.7747C3.7315 13.8297 2.57547 16.2033 1.6083 18.8242C1.18481 19.9671 0.835713 21.0605 0.566737 22.0715C0.297761 23.0824 0.114628 23.8846 0.034508 24.4616C-0.108564 25.489 0.234809 26.3352 1.05891 26.9671C1.81433 27.555 2.72427 27.8517 3.77156 27.8517C5.08782 27.8517 6.55288 27.4616 8.11523 26.6978C10.5188 25.522 12.6191 23.7747 14.3646 21.5C16.2646 19.044 17.2261 16.4616 17.2261 13.8187C17.2261 11.8077 16.5451 10.1813 15.2002 8.97805L15.1944 8.98354Z" fill="black"/>
        <path d="M23.4238 22.2088C24.059 21.9891 24.6599 21.7143 25.2036 21.3902C25.7473 21.066 26.228 20.6979 26.6229 20.2913C27.0235 19.8792 27.3382 19.4176 27.5614 18.9231C27.7846 18.4231 27.9048 17.8682 27.9162 17.2748C27.9277 16.6814 27.8361 16.1594 27.6473 15.7253C27.1036 14.4396 26.0105 13.7858 24.3909 13.7858C23.0289 13.7858 21.6611 14.2693 20.3334 15.2253C19.7211 15.6704 19.1488 16.1979 18.6223 16.7858C18.1015 17.3737 17.6379 18.011 17.2488 18.6704C16.8596 19.3297 16.5449 20.0275 16.3159 20.7308C16.0813 21.4396 15.9497 22.1924 15.9096 22.9671C15.8524 24.511 16.3045 25.7528 17.243 26.6594C18.0786 27.4561 19.206 27.8572 20.5852 27.8572C22.8973 27.8572 24.6656 27.2858 25.8503 26.1429C26.1421 25.7803 26.2909 25.3462 26.2909 24.8517C26.2909 24.5935 26.2223 24.3572 26.0849 24.1484C25.793 23.7033 25.3867 23.6759 24.8717 24.1649C24.6542 24.3737 24.368 24.577 24.019 24.7748C23.0346 25.3627 22.0045 25.6594 20.9686 25.6594C20.3849 25.6594 19.95 25.4176 19.6409 24.9231C19.4921 24.6979 19.3891 24.4396 19.3262 24.1484C19.2632 23.8572 19.2346 23.588 19.2461 23.3517C19.2518 23.1704 19.2689 23.022 19.2918 22.9121C20.7512 22.8847 22.1418 22.6539 23.4238 22.2198V22.2088ZM24.0819 15.7858C24.2879 15.7858 24.906 15.7858 24.906 16.9781C24.906 17.8132 24.3967 18.7088 23.3894 19.6319C22.3307 20.5825 21.0717 21.1539 19.6524 21.3242C20.0988 19.9121 20.6882 18.6759 21.4036 17.6374C22.2677 16.4066 23.1662 15.7858 24.0876 15.7858H24.0819Z" fill="black"/>
        <path d="M38.6184 16.6539C38.6184 15.9506 38.2865 15.3187 37.6398 14.7803C36.8557 14.1209 35.7569 13.7858 34.372 13.7858C32.7925 13.7858 31.4819 14.2528 30.469 15.1814C29.5762 16.0055 29.1184 16.9396 29.1184 17.9561C29.1184 19.1704 29.6849 20.5055 30.7952 21.9286L31.5792 22.9891C31.8253 23.3132 32.0313 23.6209 32.1916 23.9066C32.3461 24.1814 32.4262 24.4891 32.4262 24.8242C32.4262 25.1594 32.2774 25.4121 31.9741 25.6429C31.8425 25.7473 31.6937 25.8242 31.5334 25.8737C31.3732 25.9231 31.1729 25.9451 30.9383 25.9451C30.7036 25.9451 30.4919 25.8847 30.2858 25.7638C29.6849 25.4231 29.3931 24.8297 29.3931 23.9451C29.3931 23.5165 29.1527 23.2858 28.7178 23.2858C28.2828 23.2858 27.8307 23.4726 27.4244 23.8352C27.2298 24.0001 27.0639 24.2143 26.9322 24.4561C26.8006 24.7033 26.7319 24.9781 26.7319 25.2693C26.7319 25.9286 27.0352 26.511 27.6304 26.9891C28.3401 27.5495 29.313 27.8352 30.5205 27.8352C31.728 27.8352 32.9413 27.4671 33.9599 26.7418C34.4407 26.4066 34.8355 26.0001 35.1389 25.5385C35.4422 25.066 35.5967 24.4781 35.5967 23.7803C35.5967 23.0825 35.2991 22.2748 34.7096 21.3682C34.4693 20.9836 34.2003 20.6154 33.9142 20.2693C33.628 19.9286 33.3648 19.588 33.1244 19.2583C32.884 18.9286 32.6837 18.599 32.5235 18.2693C32.369 17.9506 32.2889 17.566 32.2889 17.1209C32.2889 16.6759 32.4491 16.3352 32.781 16.0385C32.9413 15.9066 33.1358 15.8077 33.3476 15.7363C33.5651 15.6649 33.8455 15.6319 34.1831 15.6319C34.5036 15.6319 34.8127 15.7693 35.1102 16.0385C35.2533 16.1704 35.3678 16.3297 35.4536 16.5165C35.5395 16.7033 35.5795 16.9121 35.5795 17.1319C35.5795 17.3517 35.5452 17.577 35.4765 17.7858C35.3907 18.044 35.4193 18.2748 35.5624 18.4781C35.6997 18.6759 35.9 18.8023 36.1518 18.8517C36.684 18.9561 37.2163 18.8077 37.7428 18.4176C38.3208 17.9836 38.6184 17.3902 38.6184 16.6539Z" fill="black"/>
        <path d="M41.9145 13.7858C41.3479 13.7858 40.8386 13.8902 40.4094 14.1044C40.1919 14.2143 40.0202 14.3517 39.8829 14.5055C39.7398 14.6704 39.6654 14.8407 39.6654 15.0275C39.6654 15.2253 39.7283 15.3627 39.8542 15.4506L40.1289 15.6374C40.2148 15.6979 40.3006 15.7913 40.3807 15.9066C40.4323 15.9781 40.4895 16.1649 40.4895 16.6264C40.4895 17.0055 40.2262 17.8187 39.6997 19.044L38.9672 20.7088C38.7039 21.2803 38.4521 21.8517 38.2289 22.4176C38.0057 22.9781 37.8112 23.5165 37.6624 24.0275C37.5079 24.544 37.4277 25.022 37.4277 25.4451C37.4277 25.8682 37.5079 26.2528 37.6567 26.555C38.0744 27.4286 38.847 27.8682 39.963 27.8682C40.9244 27.8682 41.7027 27.544 42.275 26.9012C42.6699 26.4561 42.8702 26.0165 42.8702 25.5935C42.8702 25.099 42.5669 25.022 42.3895 25.022C42.275 25.022 42.1148 25.0715 41.8916 25.1814C41.7085 25.2693 41.4223 25.3132 41.0503 25.3132C40.7127 25.3132 40.5696 25.1759 40.5696 24.8517C40.5696 24.2803 40.8729 23.3187 41.4681 22.0001L42.2922 20.1759C42.5898 19.555 42.9618 18.7253 43.3967 17.7033C43.8316 16.6759 44.0548 15.7473 44.0548 14.9396C44.0548 14.1869 43.3338 13.8023 41.903 13.8023L41.9145 13.7858Z" fill="black"/>
        <path d="M42.8587 11.522C43.0762 11.6209 43.3051 11.6703 43.5398 11.6703C43.6027 11.6703 43.6657 11.6703 43.7286 11.6593C44.0262 11.6264 44.3181 11.544 44.5871 11.4066C44.856 11.2747 45.0964 11.0934 45.3081 10.8791C45.5199 10.6648 45.6916 10.4066 45.8232 10.1154C45.9548 9.82418 46.0178 9.45605 46.0178 9.02198C46.0178 8.56044 45.7717 8.17033 45.291 7.85714C45.0964 7.72528 44.8789 7.63187 44.65 7.57692C44.4211 7.52198 44.1121 7.49451 43.7115 7.49451C43.3109 7.49451 42.853 7.63736 42.3952 7.92308C42.1491 8.07143 41.9488 8.26923 41.7886 8.5055C41.6226 8.75275 41.5425 9.1044 41.5425 9.58242C41.5425 10.0604 41.7542 10.5385 42.1663 10.9945C42.3609 11.2198 42.5955 11.3956 42.8645 11.5165L42.8587 11.522Z" fill="#13B4B1"/>
        <path d="M58.3452 15.7143C58.4883 15.4286 58.2994 15.1374 57.7844 14.8462C57.5955 14.7363 57.3952 14.6484 57.1892 14.5825C56.9774 14.5165 56.7771 14.4836 56.5883 14.4836C56.3708 14.4836 56.1419 14.6099 55.8729 14.8627C55.7585 14.9726 55.6497 15.0935 55.5582 15.2143C55.5009 15.2858 55.4437 15.3572 55.3865 15.4231C54.8085 14.3352 53.8699 13.7858 52.5994 13.7858C51.329 13.7858 49.9612 14.2638 48.6392 15.1979C48.0097 15.6319 47.4088 16.1594 46.8594 16.7583C46.31 17.3572 45.8235 18.022 45.4172 18.7308C45.0109 19.4396 44.6847 20.2034 44.45 21.0001C44.2154 21.7968 44.0952 22.6044 44.0952 23.3957C44.0952 24.1869 44.1925 24.8682 44.3756 25.4176C44.925 27.033 46.0067 27.8572 47.5976 27.8572C49.1886 27.8572 50.625 27.011 51.9413 25.3407C51.0657 28.2968 49.8124 30.5055 48.2157 31.9286C47.8036 32.2913 47.3573 32.6044 46.8994 32.8572C46.4473 33.1099 46.0067 33.2693 45.5946 33.3407C44.9823 33.4396 44.8506 33.7693 44.8506 34.0275C44.8506 34.2473 45.0452 34.4781 45.4458 34.7253C45.6232 34.8297 45.8235 34.9066 46.0467 34.9616C46.1612 34.9891 46.2985 35.0055 46.4759 35.0055C46.6533 35.0055 46.8765 34.9891 47.1283 34.9616C47.6205 34.9012 48.21 34.6814 48.8681 34.3023C51.3576 32.9066 53.435 29.7968 55.0431 25.0495L57.0805 18.8023C57.4181 17.7968 57.8416 16.7583 58.3395 15.7198L58.3452 15.7143ZM49.3374 25.3517C49.0112 25.577 48.6793 25.6924 48.3473 25.6924C48.0383 25.6924 47.8094 25.533 47.6491 25.2033C47.5747 25.0495 47.5232 24.8627 47.4946 24.6594C47.466 24.4451 47.4545 24.1264 47.4545 23.7088C47.4545 23.2913 47.5232 22.7528 47.6606 22.099C47.7979 21.4396 47.9868 20.7913 48.2271 20.1649C48.4675 19.5385 48.7536 18.9396 49.0799 18.3737C49.4061 17.8132 49.7609 17.3187 50.1329 16.8957C50.5049 16.4781 50.8997 16.1429 51.3118 15.9012C51.7124 15.6649 52.1187 15.544 52.5136 15.544C52.9085 15.544 53.3491 15.7803 53.847 16.2363C54.0874 16.4671 54.2305 16.6924 54.2762 16.9066C53.9672 18.2143 53.4235 19.6099 52.6681 21.0495C52.319 21.7088 51.9527 22.3242 51.5693 22.8902C51.1859 23.4561 50.8024 23.9561 50.4247 24.3737C50.047 24.7858 49.6808 25.1154 49.3431 25.3572L49.3374 25.3517Z" fill="black"/>
        <path d="M69.8366 20.3682C70.0827 19.8902 70.3746 19.2693 70.7008 18.5165C71.0384 17.7473 71.2044 16.9946 71.2044 16.2858C71.2044 15.577 70.9354 14.9506 70.4089 14.4781C70.1571 14.2583 69.8595 14.0825 69.5276 13.9616C69.1899 13.8407 68.7779 13.7803 68.2972 13.7803C67.8165 13.7803 67.1469 14.044 66.2999 14.5935C65.8878 14.8572 65.3155 15.3902 64.6059 16.1924L63.6387 17.3077C63.4041 17.5935 62.9692 18.1539 62.3454 18.9781C62.414 18.8242 62.4942 18.6539 62.5686 18.4726C62.7174 18.1374 62.8604 17.7913 62.9921 17.4396C63.1237 17.088 63.2381 16.7363 63.324 16.3957C63.4155 16.0495 63.4613 15.6979 63.4613 15.3572C63.4613 14.9891 63.2782 14.6374 62.9177 14.3077C62.7517 14.1484 62.5399 14.0165 62.2996 13.9231C62.0535 13.8297 61.7101 13.7803 61.2809 13.7803C60.8517 13.7803 60.4053 13.8847 59.9761 14.099C59.7586 14.2088 59.5869 14.3462 59.4496 14.5001C59.3065 14.6649 59.2321 14.8352 59.2321 15.022C59.2321 15.2198 59.2951 15.3572 59.421 15.4451L59.6957 15.6264C59.9418 15.7968 60.0562 16.0605 60.0562 16.4286C60.0562 17.1704 59.5125 18.8517 58.4366 21.4231L57.664 23.2363C57.4466 23.7253 57.252 24.1319 57.086 24.4506L56.5652 25.522C56.2791 26.066 56.2505 26.2583 56.2505 26.3572C56.2505 26.7253 56.4393 27.0715 56.8171 27.3737C56.9945 27.5165 57.2005 27.6319 57.4351 27.7198C57.6755 27.8077 57.9273 27.8517 58.1848 27.8517C58.4652 27.8517 58.6884 27.7583 58.8544 27.5825C59.0032 27.4176 59.1749 27.1484 59.3752 26.7528L60.1192 25.2143C60.4168 24.577 60.8402 23.7638 61.3553 22.8187L63.6159 20.055L64.789 18.7088C65.1725 18.2803 65.6303 17.7968 66.1511 17.2803C66.7692 16.6594 67.1011 16.5275 67.2728 16.5275C67.908 16.5275 67.908 16.7968 67.908 16.8957C67.908 17.2034 67.7707 17.6319 67.4902 18.1814L67.021 19.1209C66.8149 19.511 66.4773 20.2198 65.9851 21.2858C65.3098 22.8297 64.9665 24.1374 64.9665 25.1704C64.9665 26.0385 65.2526 26.7308 65.8192 27.2143C66.071 27.4396 66.3628 27.6044 66.6833 27.7033C67.0038 27.8022 67.4101 27.8572 67.8851 27.8572C68.3601 27.8572 68.921 27.6704 69.499 27.2968C70.3689 26.7473 70.8095 26.0495 70.8095 25.2253C70.8095 24.9726 70.6607 24.8297 70.3975 24.8297C70.3174 24.8297 70.1743 24.8572 69.7279 25.0825C69.4303 25.2308 69.0927 25.3077 68.7321 25.3077C68.114 25.3077 68.114 25.066 68.114 24.9781C68.114 24.3297 68.4574 23.2638 69.1384 21.8077C69.3559 21.3242 69.5905 20.8462 69.8309 20.3792L69.8366 20.3682Z" fill="black"/>
        <path d="M79.0102 22.2088C79.6454 21.9891 80.2463 21.7143 80.79 21.3902C81.3337 21.066 81.8144 20.6979 82.2093 20.2913C82.6099 19.8792 82.9246 19.4176 83.1478 18.9231C83.371 18.4231 83.4912 17.8682 83.5027 17.2748C83.5141 16.6814 83.4225 16.1594 83.2337 15.7253C82.69 14.4396 81.5969 13.7858 79.9774 13.7858C78.6153 13.7858 77.2475 14.2693 75.9198 15.2253C75.3075 15.6704 74.7352 16.1979 74.2087 16.7858C73.6879 17.3737 73.2243 18.011 72.8352 18.6704C72.446 19.3297 72.1313 20.0275 71.9024 20.7308C71.6677 21.4396 71.5361 22.1924 71.496 22.9671C71.4388 24.511 71.8909 25.7528 72.8295 26.6594C73.665 27.4561 74.7924 27.8572 76.1716 27.8572C78.4837 27.8572 80.2521 27.2858 81.4367 26.1429C81.7286 25.7803 81.8774 25.3462 81.8774 24.8517C81.8774 24.5935 81.8087 24.3572 81.6713 24.1484C81.3795 23.7033 80.9731 23.6759 80.4581 24.1649C80.2406 24.3737 79.9545 24.577 79.6054 24.7748C78.621 25.3627 77.5909 25.6594 76.5551 25.6594C75.9713 25.6594 75.5364 25.4176 75.2274 24.9231C75.0786 24.6979 74.9756 24.4396 74.9126 24.1484C74.8496 23.8572 74.821 23.588 74.8325 23.3517C74.8382 23.1704 74.8554 23.022 74.8783 22.9121C76.3376 22.8847 77.7283 22.6539 79.0102 22.2198V22.2088ZM79.6683 15.7858C79.8744 15.7858 80.4924 15.7858 80.4924 16.9781C80.4924 17.8132 79.9831 18.7088 78.9759 19.6319C77.9171 20.5825 76.6581 21.1539 75.2388 21.3242C75.6852 19.9121 76.2747 18.6759 76.99 17.6374C77.8542 16.4066 78.7527 15.7858 79.6741 15.7858H79.6683Z" fill="black"/>
        <path d="M94.9947 15.4066C94.9775 15.0001 94.8173 14.6264 94.514 14.2913C94.2049 13.9506 93.7986 13.7803 93.295 13.7803C92.7914 13.7803 92.3908 13.8792 92.036 14.077C90.8857 14.7528 89.6896 16.1484 88.4878 18.2253L87.9498 19.2034L87.9384 19.2308C87.9155 19.3077 87.8754 19.3902 87.8125 19.4726C87.8239 19.4121 87.8411 19.3352 87.864 19.2473C87.8983 19.1045 87.9784 18.8737 88.0929 18.566C88.2131 18.2473 88.3332 17.9121 88.4534 17.5715C88.5736 17.2198 88.6766 16.8572 88.7682 16.4946C88.8597 16.1264 88.8998 15.7528 88.8941 15.3957C88.8941 15.011 88.6995 14.6429 88.3218 14.3023C88.1444 14.1429 87.9326 14.0165 87.6808 13.9176C87.4347 13.8242 87.0856 13.7748 86.6564 13.7748C86.2272 13.7748 85.7865 13.8792 85.3745 14.0935C85.1685 14.2088 84.9968 14.3407 84.8709 14.4946C84.7335 14.6594 84.6649 14.8352 84.6706 15.0165C84.6763 15.2088 84.7393 15.3462 84.8537 15.4341L85.1341 15.6209C85.3802 15.7748 85.5061 16.044 85.5347 16.4231C85.5347 17.9176 84.5905 20.9066 82.7305 25.2968C82.6275 25.544 82.5474 25.7583 82.4844 25.9286C82.4215 26.1154 82.3929 26.2748 82.4043 26.4121C82.4158 26.555 82.4787 26.7088 82.6046 26.8902C82.7248 27.066 82.8793 27.2253 83.0739 27.3627C83.2685 27.5001 83.4859 27.6154 83.732 27.7034C83.9781 27.7913 84.2299 27.8352 84.476 27.8352C84.7507 27.8352 84.9625 27.7363 85.1113 27.5385C85.2372 27.3682 85.3745 27.0935 85.5405 26.6979L86.1471 25.1649C87.057 22.9012 88.2474 20.8297 89.6896 19.0001C90.1131 18.4506 90.5308 18.0001 90.92 17.6539C91.292 17.3242 91.6067 17.1539 91.8585 17.1539C92.1103 17.1539 92.3736 17.2748 92.654 17.511L92.9573 17.7638C93.0832 17.8627 93.2206 17.9121 93.3694 17.9121C93.8444 17.9121 94.2564 17.6429 94.5769 17.1154C94.72 16.8847 94.8287 16.6374 94.9031 16.3737C94.9775 16.1099 95.0061 15.7803 94.989 15.3902L94.9947 15.4066Z" fill="black"/>
    </g>
    <defs>
        <clipPath id="clip0_112_1268">
            <rect width="95" height="35" fill="white"/>
        </clipPath>
    </defs>
</svg>